<svg width="64" height="50" viewBox="0 0 64 64" fill="none" xmlns="http://www.w3.org/2000/svg">
<path fill-rule="evenodd" clip-rule="evenodd" d="M9.01567 24.6667H17.3333H46.6667H54.9843L50.0305 55.3334H13.9695L9.01567 24.6667ZM57.3333 20.6667H48.564C47.6486 11.7963 40.7184 4.66675 32 4.66675C23.2816 4.66675 16.3514 11.7963 15.436 20.6667H6.66667C6.08051 20.6667 5.52386 20.9239 5.14386 21.3702C4.76387 21.8165 4.59879 22.407 4.69227 22.9857L10.2923 57.6524C10.4488 58.6213 11.2852 59.3334 12.2667 59.3334H51.7333C52.7148 59.3334 53.5512 58.6213 53.7077 57.6524L59.3077 22.9857C59.4012 22.407 59.2361 21.8165 58.8561 21.3702C58.4761 20.9239 57.9195 20.6667 57.3333 20.6667ZM32 8.66675C25.7539 8.66675 20.3462 13.761 19.4603 20.6667H44.5398C43.6539 13.761 38.2461 8.66675 32 8.66675ZM25.3333 34.6667C25.3333 36.1394 24.1394 37.3333 22.6667 37.3333C21.1939 37.3333 20 36.1394 20 34.6667C20 33.1939 21.1939 32 22.6667 32C24.1394 32 25.3333 33.1939 25.3333 34.6667ZM25.6563 42.879C25.041 41.9694 23.8058 41.7257 22.8906 42.3359C21.9715 42.9486 21.7232 44.1903 22.3359 45.1094L24 44C22.3359 45.1094 22.3364 45.1101 22.3369 45.1109L22.338 45.1126L22.3404 45.1161L22.346 45.1244L22.3602 45.1453L22.4013 45.2039C22.4343 45.2503 22.4786 45.311 22.5341 45.3839C22.6451 45.5296 22.802 45.7252 23.0052 45.9537C23.4101 46.4092 24.0072 47.0053 24.8 47.6C26.3917 48.7937 28.8023 50 32 50C35.1977 50 37.6083 48.7937 39.2 47.6C39.9928 47.0053 40.5899 46.4092 40.9948 45.9537C41.198 45.7252 41.3549 45.5296 41.4659 45.3839C41.5214 45.311 41.5657 45.2503 41.5987 45.2039L41.6398 45.1453L41.654 45.1244L41.6596 45.1161L41.662 45.1126L41.6631 45.1109C41.6636 45.1101 41.6641 45.1094 40 44L41.6641 45.1094C42.2768 44.1903 42.0285 42.9486 41.1094 42.3359C40.1942 41.7257 38.9591 41.9694 38.3437 42.879L38.3388 42.8858L38.3204 42.9114C38.3136 42.9206 38.3055 42.9316 38.2959 42.9442C38.2922 42.9492 38.2883 42.9543 38.2841 42.9598C38.2285 43.0328 38.1354 43.1498 38.0052 43.2962C37.7434 43.5907 37.3405 43.9946 36.8 44.4C35.725 45.2062 34.1357 46 32 46C29.8643 46 28.275 45.2062 27.2 44.4C26.6595 43.9946 26.2566 43.5907 25.9948 43.2962C25.8646 43.1498 25.7715 43.0328 25.7159 42.9598C25.6881 42.9233 25.6698 42.8981 25.6612 42.8858L25.6564 42.879L25.6563 42.879ZM38.3388 42.8858L38.3394 42.8853L38.3378 42.8877L38.3388 42.8858ZM44 34.6667C44 36.1394 42.8061 37.3333 41.3333 37.3333C39.8606 37.3333 38.6667 36.1394 38.6667 34.6667C38.6667 33.1939 39.8606 32 41.3333 32C42.8061 32 44 33.1939 44 34.6667Z" fill="url(#paint0_linear_41_210)"/>
<defs>
<linearGradient id="paint0_linear_41_210" x1="4.66666" y1="4.66675" x2="59.9998" y2="5.34987" gradientUnits="userSpaceOnUse">
<stop stop-color="#F72DB1"/>
<stop offset="1" stop-color="#5E83D2"/>
</linearGradient>
</defs>
</svg>
