<svg width="55" height="50" viewBox="0 0 55 58" fill="none" xmlns="http://www.w3.org/2000/svg">
<path fill-rule="evenodd" clip-rule="evenodd" d="M26 0.333252C26.7087 0.333252 27.3645 0.708334 27.7239 1.31921L41.0572 23.9859C41.421 24.6043 41.4256 25.3701 41.0694 25.9929C40.7132 26.6156 40.0508 26.9999 39.3333 26.9999H12.6667C11.9492 26.9999 11.2868 26.6156 10.9306 25.9929C10.5744 25.3701 10.579 24.6043 10.9428 23.9859L24.2761 1.31921C24.6355 0.708334 25.2913 0.333252 26 0.333252ZM16.1635 22.9999H35.8365L26 6.27787L16.1635 22.9999ZM0 35.6666C0 34.562 0.89543 33.6666 2 33.6666H20.6667C21.7712 33.6666 22.6667 34.562 22.6667 35.6666V54.3333C22.6667 55.4378 21.7712 56.3333 20.6667 56.3333H2C0.89543 56.3333 0 55.4378 0 54.3333V35.6666ZM4 37.6666V52.3333H18.6667V37.6666H4ZM33.3333 44.9999C33.3333 40.2135 37.2135 36.3333 42 36.3333C46.7865 36.3333 50.6667 40.2135 50.6667 44.9999C50.6667 49.7864 46.7865 53.6666 42 53.6666C37.2135 53.6666 33.3333 49.7864 33.3333 44.9999ZM42 32.3333C35.0044 32.3333 29.3333 38.0043 29.3333 44.9999C29.3333 51.9955 35.0044 57.6666 42 57.6666C48.9956 57.6666 54.6667 51.9955 54.6667 44.9999C54.6667 38.0043 48.9956 32.3333 42 32.3333Z" fill="url(#paint0_linear_216_476)"/>
<defs>
<linearGradient id="paint0_linear_216_476" x1="0" y1="0.333252" x2="55.3339" y2="0.984613" gradientUnits="userSpaceOnUse">
<stop stop-color="#F72DB1"/>
<stop offset="1" stop-color="#5E83D2"/>
</linearGradient>
</defs>
</svg>
