<?xml version="1.0" encoding="utf-8"?>
<svg viewBox="0 0 500 500" xmlns="http://www.w3.org/2000/svg">
  <defs>
    <filter id="filter0_d_161_197" x="0.151978" y="19.0239" width="48.1281" height="70.9761" filterUnits="userSpaceOnUse" color-interpolation-filters="sRGB">
      <feFlood flood-opacity="0" result="BackgroundImageFix"/>
      <feColorMatrix in="SourceAlpha" type="matrix" values="0 0 0 0 0 0 0 0 0 0 0 0 0 0 0 0 0 0 127 0" result="hardAlpha"/>
      <feOffset dy="4"/>
      <feGaussianBlur stdDeviation="2"/>
      <feComposite in2="hardAlpha" operator="out"/>
      <feColorMatrix type="matrix" values="0 0 0 0 0 0 0 0 0 0 0 0 0 0 0 0 0 0 0.25 0"/>
      <feBlend mode="normal" in2="BackgroundImageFix" result="effect1_dropShadow_161_197"/>
      <feBlend mode="normal" in="SourceGraphic" in2="effect1_dropShadow_161_197" result="shape"/>
    </filter>
    <linearGradient id="paint0_linear_161_197" x1="3" y1="0" x2="47.5419" y2="0.241956" gradientUnits="userSpaceOnUse">
      <stop stop-color="#5E83D2"/>
      <stop offset="1" stop-color="#F72DB1"/>
    </linearGradient>
    <filter id="filter1_d_161_197" x="30.72" y="18" width="48.1281" height="70.9761" filterUnits="userSpaceOnUse" color-interpolation-filters="sRGB">
      <feFlood flood-opacity="0" result="BackgroundImageFix"/>
      <feColorMatrix in="SourceAlpha" type="matrix" values="0 0 0 0 0 0 0 0 0 0 0 0 0 0 0 0 0 0 127 0" result="hardAlpha"/>
      <feOffset dy="4"/>
      <feGaussianBlur stdDeviation="2"/>
      <feComposite in2="hardAlpha" operator="out"/>
      <feColorMatrix type="matrix" values="0 0 0 0 0 0 0 0 0 0 0 0 0 0 0 0 0 0 0.25 0"/>
      <feBlend mode="normal" in2="BackgroundImageFix" result="effect1_dropShadow_161_197"/>
      <feBlend mode="normal" in="SourceGraphic" in2="effect1_dropShadow_161_197" result="shape"/>
    </filter>
    <linearGradient id="paint1_linear_161_197" x1="76" y1="100" x2="31.4581" y2="99.758" gradientUnits="userSpaceOnUse">
      <stop stop-color="#73E0A9"/>
      <stop offset="0.0001" stop-color="#F72DB1"/>
      <stop offset="1" stop-color="#5E83D2"/>
    </linearGradient>
  </defs>
  <g filter="url(#filter0_d_161_197)" transform="matrix(6.877957, 0, 0, 7.575758, -22.54735, -129.655945)" style="">
    <path d="M44.28 82V69.328H34.2C31.608 69.328 30.456 68.08 30.456 65.584V45.52H41.976V33.808H30.456V19.024H13.848V33.808H4.152V45.52H13.848V68.176C13.848 76.72 18.648 82 27.384 82H44.28Z" fill="url(#paint0_linear_161_197)"/>
    <path d="M44.28 82V83H45.28V82H44.28ZM44.28 69.328H45.28V68.328H44.28V69.328ZM30.456 45.52V44.52H29.456V45.52H30.456ZM41.976 45.52V46.52H42.976V45.52H41.976ZM41.976 33.808H42.976V32.808H41.976V33.808ZM30.456 33.808H29.456V34.808H30.456V33.808ZM30.456 19.024H31.456V18.024H30.456V19.024ZM13.848 19.024V18.024H12.848V19.024H13.848ZM13.848 33.808V34.808H14.848V33.808H13.848ZM4.152 33.808V32.808H3.152V33.808H4.152ZM4.152 45.52H3.152V46.52H4.152V45.52ZM13.848 45.52H14.848V44.52H13.848V45.52ZM45.28 82V69.328H43.28V82H45.28ZM44.28 68.328H34.2V70.328H44.28V68.328ZM34.2 68.328C33.0483 68.328 32.4218 68.0505 32.0699 67.6918C31.7145 67.3293 31.456 66.6975 31.456 65.584H29.456C29.456 66.9665 29.7735 68.2067 30.6421 69.0922C31.5142 69.9815 32.7597 70.328 34.2 70.328V68.328ZM31.456 65.584V45.52H29.456V65.584H31.456ZM30.456 46.52H41.976V44.52H30.456V46.52ZM42.976 45.52V33.808H40.976V45.52H42.976ZM41.976 32.808H30.456V34.808H41.976V32.808ZM31.456 33.808V19.024H29.456V33.808H31.456ZM30.456 18.024H13.848V20.024H30.456V18.024ZM12.848 19.024V33.808H14.848V19.024H12.848ZM13.848 32.808H4.152V34.808H13.848V32.808ZM3.152 33.808V45.52H5.152V33.808H3.152ZM4.152 46.52H13.848V44.52H4.152V46.52ZM12.848 45.52V68.176H14.848V45.52H12.848ZM12.848 68.176C12.848 72.6305 14.1015 76.362 16.6185 78.9845C19.1416 81.6132 22.8118 83 27.384 83V81C23.2202 81 20.1224 79.7468 18.0615 77.5995C15.9945 75.446 14.848 72.2655 14.848 68.176H12.848ZM27.384 83H44.28V81H27.384V83Z" fill="black"/>
  </g>
  <g filter="url(#filter1_d_161_197)" transform="matrix(6.877957, 0, 0, 7.575758, -22.54735, -129.655945)" style="">
    <path d="M34.72 18L34.72 30.672L44.8 30.672C47.392 30.672 48.544 31.92 48.544 34.416L48.544 54.48L37.024 54.48L37.024 66.192L48.544 66.192L48.544 80.976L65.152 80.976L65.152 66.192L74.848 66.192L74.848 54.48L65.152 54.48L65.152 31.824C65.152 23.28 60.352 18 51.616 18L34.72 18Z" fill="url(#paint1_linear_161_197)"/>
    <path d="M34.72 18L34.72 17L33.72 17L33.72 18L34.72 18ZM34.72 30.672L33.72 30.672L33.72 31.672L34.72 31.672L34.72 30.672ZM48.544 54.48L48.544 55.48L49.544 55.48L49.544 54.48L48.544 54.48ZM37.024 54.48L37.024 53.48L36.024 53.48L36.024 54.48L37.024 54.48ZM37.024 66.192L36.024 66.192L36.024 67.192L37.024 67.192L37.024 66.192ZM48.544 66.192L49.544 66.192L49.544 65.192L48.544 65.192L48.544 66.192ZM48.544 80.976L47.544 80.976L47.544 81.976L48.544 81.976L48.544 80.976ZM65.152 80.976L65.152 81.976L66.152 81.976L66.152 80.976L65.152 80.976ZM65.152 66.192L65.152 65.192L64.152 65.192L64.152 66.192L65.152 66.192ZM74.848 66.192L74.848 67.192L75.848 67.192L75.848 66.192L74.848 66.192ZM74.848 54.48L75.848 54.48L75.848 53.48L74.848 53.48L74.848 54.48ZM65.152 54.48L64.152 54.48L64.152 55.48L65.152 55.48L65.152 54.48ZM33.72 18L33.72 30.672L35.72 30.672L35.72 18L33.72 18ZM34.72 31.672L44.8 31.672L44.8 29.672L34.72 29.672L34.72 31.672ZM44.8 31.672C45.9517 31.672 46.5782 31.9495 46.9301 32.3082C47.2855 32.6707 47.544 33.3025 47.544 34.416L49.544 34.416C49.544 33.0335 49.2265 31.7933 48.3579 30.9078C47.4858 30.0185 46.2403 29.672 44.8 29.672L44.8 31.672ZM47.544 34.416L47.544 54.48L49.544 54.48L49.544 34.416L47.544 34.416ZM48.544 53.48L37.024 53.48L37.024 55.48L48.544 55.48L48.544 53.48ZM36.024 54.48L36.024 66.192L38.024 66.192L38.024 54.48L36.024 54.48ZM37.024 67.192L48.544 67.192L48.544 65.192L37.024 65.192L37.024 67.192ZM47.544 66.192L47.544 80.976L49.544 80.976L49.544 66.192L47.544 66.192ZM48.544 81.976L65.152 81.976L65.152 79.976L48.544 79.976L48.544 81.976ZM66.152 80.976L66.152 66.192L64.152 66.192L64.152 80.976L66.152 80.976ZM65.152 67.192L74.848 67.192L74.848 65.192L65.152 65.192L65.152 67.192ZM75.848 66.192L75.848 54.48L73.848 54.48L73.848 66.192L75.848 66.192ZM74.848 53.48L65.152 53.48L65.152 55.48L74.848 55.48L74.848 53.48ZM66.152 54.48L66.152 31.824L64.152 31.824L64.152 54.48L66.152 54.48ZM66.152 31.824C66.152 27.3695 64.8985 23.638 62.3815 21.0155C59.8584 18.3868 56.1882 17 51.616 17L51.616 19C55.7798 19 58.8776 20.2532 60.9385 22.4005C63.0055 24.554 64.152 27.7345 64.152 31.824L66.152 31.824ZM51.616 17L34.72 17L34.72 19L51.616 19L51.616 17Z" fill="black"/>
  </g>
</svg>