<svg width="64" height="50" viewBox="0 0 64 64" fill="none" xmlns="http://www.w3.org/2000/svg">
<path fill-rule="evenodd" clip-rule="evenodd" d="M6 12C6 8.6863 8.6863 6 12 6H52C55.3138 6 58 8.68632 58 12V52C58 55.3138 55.3138 58 52 58H12C8.68632 58 6 55.3138 6 52V12ZM12 10C10.8954 10 10 10.8954 10 12V52C10 53.1046 10.8954 54 12 54H52C53.1046 54 54 53.1046 54 52V12C54 10.8954 53.1046 10 52 10H12Z" fill="url(#paint0_linear_41_205)"/>
<path fill-rule="evenodd" clip-rule="evenodd" d="M15.3333 23.9999C15.3333 19.2135 19.2136 15.3333 24 15.3333C28.7864 15.3333 32.6667 19.2135 32.6667 23.9999C32.6667 28.7864 28.7864 32.6666 24 32.6666C19.2136 32.6666 15.3333 28.7864 15.3333 23.9999ZM24 19.3333C21.4227 19.3333 19.3333 21.4226 19.3333 23.9999C19.3333 26.5772 21.4227 28.6666 24 28.6666C26.5773 28.6666 28.6667 26.5772 28.6667 23.9999C28.6667 21.4226 26.5773 19.3333 24 19.3333Z" fill="url(#paint1_linear_41_205)"/>
<path fill-rule="evenodd" clip-rule="evenodd" d="M38.6557 36.156C38.6557 36.1561 38.6556 36.1561 38.6556 36.1561L25.3241 53.9999H50.8895C51.4282 53.9999 51.7445 53.3939 51.4364 52.9519C51.4364 52.9519 51.4364 52.9519 51.4364 52.9518L39.7367 36.1738C39.4767 35.8009 38.9279 35.7919 38.6557 36.156ZM35.4513 33.7619C37.3559 31.2128 41.1975 31.2755 43.0177 33.8858L43.0177 33.8858L54.7175 50.664L54.7175 50.664C56.8746 53.7577 54.6611 57.9999 50.8895 57.9999H21.3333C20.5765 57.9999 19.8844 57.5727 19.5453 56.896C19.2062 56.2193 19.2781 55.4092 19.7311 54.8029L35.4513 33.7619L35.4513 33.7619Z" fill="url(#paint2_linear_41_205)"/>
<defs>
<linearGradient id="paint0_linear_41_205" x1="6" y1="6" x2="58.634" y2="6.6498" gradientUnits="userSpaceOnUse">
<stop stop-color="#F72DB1"/>
<stop offset="1" stop-color="#5E83D2"/>
</linearGradient>
<linearGradient id="paint1_linear_41_205" x1="15.3333" y1="15.3333" x2="32.878" y2="15.5499" gradientUnits="userSpaceOnUse">
<stop stop-color="#F72DB1"/>
<stop offset="1" stop-color="#5E83D2"/>
</linearGradient>
<linearGradient id="paint2_linear_41_205" x1="19.3333" y1="31.8884" x2="56.0008" y2="32.5165" gradientUnits="userSpaceOnUse">
<stop stop-color="#F72DB1"/>
<stop offset="1" stop-color="#5E83D2"/>
</linearGradient>
</defs>
</svg>
