<svg width="56" height="50" viewBox="0 0 56 47" fill="none" xmlns="http://www.w3.org/2000/svg">
<path fill-rule="evenodd" clip-rule="evenodd" d="M6.26957 3.27867C7.55568 1.57239 9.65263 0.333252 12.6667 0.333252H32C33.3574 0.333252 35.5056 0.766569 37.3548 2.28939C38.9334 3.58947 40.1413 5.55824 40.5321 8.33325H50.6667C53.244 8.33325 55.3334 10.4226 55.3334 12.9999V42.3333C55.3334 44.9106 53.244 46.9999 50.6667 46.9999H5.33335C2.75602 46.9999 0.666687 44.9106 0.666687 42.3333V12.9999C0.666687 10.6489 2.40516 8.704 4.66669 8.38051V8.06459C4.66669 6.77021 5.05607 4.88862 6.26957 3.27867ZM34.8119 5.37711C35.466 5.91577 36.1502 6.80525 36.4744 8.33325H8.66669V8.06459C8.66669 7.44852 8.87731 6.46444 9.46381 5.68633C9.9777 5.00456 10.8807 4.33325 12.6667 4.33325H32C32.6426 4.33325 33.8277 4.5666 34.8119 5.37711ZM5.33335 12.3333H6.66669H38.6667H50.6667C51.0349 12.3333 51.3334 12.6317 51.3334 12.9999V16.9875L51.3333 17V17.6667H29.3333C28.2287 17.6667 27.3333 18.5622 27.3333 19.6667V34.3334C27.3333 35.438 28.2287 36.3334 29.3333 36.3334H51.3333V37L51.3334 37.0125V42.3333C51.3334 42.7014 51.0349 42.9999 50.6667 42.9999H5.33335C4.96516 42.9999 4.66669 42.7014 4.66669 42.3333V12.9999C4.66669 12.6317 4.96516 12.3333 5.33335 12.3333ZM51.3333 21.6667H31.3333V32.3334H51.3333V21.6667ZM42.6667 27C42.6667 28.1046 41.7713 29 40.6667 29C39.5621 29 38.6667 28.1046 38.6667 27C38.6667 25.8954 39.5621 25 40.6667 25C41.7713 25 42.6667 25.8954 42.6667 27Z" fill="url(#paint0_linear_217_476)"/>
<defs>
<linearGradient id="paint0_linear_217_476" x1="0.666687" y1="0.333252" x2="55.9967" y2="1.13344" gradientUnits="userSpaceOnUse">
<stop stop-color="#F72DB1"/>
<stop offset="1" stop-color="#5E83D2"/>
</linearGradient>
</defs>
</svg>
